<svg width="285" height="457" viewBox="0 0 285 457" fill="none" xmlns="http://www.w3.org/2000/svg">
<ellipse cx="141.5" cy="442" rx="29.5" ry="7" fill="url(#paint0_radial_2_35)"/>
<path d="M195.556 42.5026H89.9356V51.7676H195.556V42.5026Z" fill="url(#paint1_linear_2_35)" stroke="#BA873E"/>
<path d="M150 4.82127C150 -0.6576 134 0.125095 134 4.82127V440H149.059C149.373 296.767 150 9.20436 150 4.82127Z" fill="url(#paint2_linear_2_35)" stroke="#BA873E"/>
<path d="M252.999 370.482H32.4928V357.511H252.999V370.482Z" fill="url(#paint3_linear_2_35)" stroke="#BA873E"/>
<ellipse cx="29.5" cy="444" rx="29.5" ry="7" fill="url(#paint4_radial_2_35)"/>
<ellipse cx="255" cy="443" rx="30" ry="6" fill="url(#paint5_radial_2_35)"/>
<path d="M18.1174 444C14.9866 444 75.2549 160 105.78 18H119.869L123 21.1614L40.8159 439.258L32.2061 444H18.1174Z" fill="#DCB576"/>
<path d="M32.2061 444C28.8144 444 21.2482 444 18.1174 444C14.9866 444 75.2549 160 105.78 18H119.869M32.2061 444L119.869 18M32.2061 444L40.8159 439.258L123 21.1614L119.869 18" stroke="#BA873E"/>
<path d="M120.425 21L33 444L39.3009 440.826L122 22.5872L120.425 21Z" fill="#BA873E" stroke="#BA873E"/>
<path d="M120.453 20L33 443L40.2856 439.004L123 22.5559L120.453 20Z" fill="#BA873E" stroke="#BA873E"/>
<path d="M265.881 444C269.042 444 208.2 160 177.384 18H163.161L160 21.1614L242.967 439.258L251.659 444H265.881Z" fill="#DCB576"/>
<path d="M251.659 444C255.083 444 262.721 444 265.881 444C269.042 444 208.2 160 177.384 18H163.161M251.659 444L163.161 18M251.659 444L242.967 439.258L160 21.1614L163.161 18" stroke="#BA873E"/>
<path d="M162.563 20L251 443L243.31 438.74L160 22.1299L162.563 20Z" fill="#BA873E" stroke="#BA873E"/>
<path d="M206.674 48.0616H78.8176V61.959H206.674V48.0616Z" fill="url(#paint6_linear_2_35)" stroke="#BA873E"/>
<path d="M266 379H18V363H266V379Z" fill="url(#paint7_linear_2_35)" stroke="#BA873E"/>
<circle cx="62.1407" cy="370.482" r="3.20599" fill="url(#paint8_radial_2_35)" stroke="#949494"/>
<circle cx="225.204" cy="370.482" r="3.20599" fill="url(#paint9_radial_2_35)" stroke="#949494"/>
<circle cx="141.819" cy="53.6206" r="3.20599" fill="url(#paint10_radial_2_35)" stroke="#949494"/>
<ellipse cx="143" cy="446" rx="71" ry="11" fill="url(#paint11_radial_2_35)"/>
<defs>
<radialGradient id="paint0_radial_2_35" cx="0" cy="0" r="1" gradientUnits="userSpaceOnUse" gradientTransform="translate(141.5 442) rotate(90) scale(7 29.5)">
<stop stop-opacity="0.28"/>
<stop offset="1" stop-color="#C4C4C4" stop-opacity="0"/>
</radialGradient>
<linearGradient id="paint1_linear_2_35" x1="142.746" y1="42.5026" x2="142.746" y2="51.7676" gradientUnits="userSpaceOnUse">
<stop stop-color="#987C4F"/>
<stop offset="0.4375" stop-color="#B88D56"/>
<stop offset="1" stop-color="#E5C48E"/>
</linearGradient>
<linearGradient id="paint2_linear_2_35" x1="142" y1="1" x2="142" y2="440" gradientUnits="userSpaceOnUse">
<stop stop-color="#DCB576"/>
<stop offset="1" stop-color="#AE803F"/>
</linearGradient>
<linearGradient id="paint3_linear_2_35" x1="142.746" y1="357.511" x2="142.746" y2="370.482" gradientUnits="userSpaceOnUse">
<stop stop-color="#B6996A"/>
<stop offset="0.484375" stop-color="#D9B47A"/>
<stop offset="1" stop-color="#CEA976"/>
</linearGradient>
<radialGradient id="paint4_radial_2_35" cx="0" cy="0" r="1" gradientUnits="userSpaceOnUse" gradientTransform="translate(29.5 444) rotate(90) scale(7 29.5)">
<stop stop-opacity="0.28"/>
<stop offset="1" stop-color="#C4C4C4" stop-opacity="0"/>
</radialGradient>
<radialGradient id="paint5_radial_2_35" cx="0" cy="0" r="1" gradientUnits="userSpaceOnUse" gradientTransform="translate(255 443) rotate(90) scale(6 30)">
<stop stop-opacity="0.28"/>
<stop offset="1" stop-color="#C4C4C4" stop-opacity="0"/>
</radialGradient>
<linearGradient id="paint6_linear_2_35" x1="142.746" y1="48.0616" x2="142.746" y2="61.959" gradientUnits="userSpaceOnUse">
<stop stop-color="#B1915C"/>
<stop offset="0.4375" stop-color="#D3A365"/>
<stop offset="1" stop-color="#E5C48E"/>
</linearGradient>
<linearGradient id="paint7_linear_2_35" x1="142" y1="363" x2="142" y2="379" gradientUnits="userSpaceOnUse">
<stop stop-color="#C5A675"/>
<stop offset="0.484375" stop-color="#E2B979"/>
<stop offset="1" stop-color="#E3B97F"/>
</linearGradient>
<radialGradient id="paint8_radial_2_35" cx="0" cy="0" r="1" gradientUnits="userSpaceOnUse" gradientTransform="translate(62.1407 370.482) rotate(90) scale(3.70599)">
<stop stop-color="#B5B5B5"/>
<stop offset="1" stop-color="#929292"/>
</radialGradient>
<radialGradient id="paint9_radial_2_35" cx="0" cy="0" r="1" gradientUnits="userSpaceOnUse" gradientTransform="translate(225.204 370.482) rotate(90) scale(3.70599)">
<stop stop-color="#B5B5B5"/>
<stop offset="1" stop-color="#929292"/>
</radialGradient>
<radialGradient id="paint10_radial_2_35" cx="0" cy="0" r="1" gradientUnits="userSpaceOnUse" gradientTransform="translate(141.819 53.6206) rotate(90) scale(3.70599)">
<stop stop-color="#B5B5B5"/>
<stop offset="1" stop-color="#929292"/>
</radialGradient>
<radialGradient id="paint11_radial_2_35" cx="0" cy="0" r="1" gradientUnits="userSpaceOnUse" gradientTransform="translate(143 446) rotate(90) scale(11 71)">
<stop stop-opacity="0.28"/>
<stop offset="1" stop-color="#C4C4C4" stop-opacity="0"/>
</radialGradient>
</defs>
</svg>
